<svg width="32" height="32" viewBox="0 0 32 32" fill="none" xmlns="http://www.w3.org/2000/svg">
<path d="M21.9399 9.93997C22.2217 9.67175 22.5966 9.52347 22.9856 9.52641C23.3746 9.52935 23.7472 9.68329 24.0248 9.95575C24.3025 10.2282 24.4634 10.5979 24.4737 10.9867C24.484 11.3756 24.3428 11.7532 24.0799 12.04L16.0999 22.02C15.9627 22.1678 15.7971 22.2864 15.613 22.3687C15.4289 22.451 15.2301 22.4954 15.0285 22.4991C14.8268 22.5029 14.6265 22.4659 14.4395 22.3904C14.2524 22.315 14.0825 22.2026 13.9399 22.06L8.64795 16.768C8.50058 16.6306 8.38237 16.465 8.30039 16.2811C8.2184 16.0971 8.17432 15.8984 8.17077 15.697C8.16721 15.4956 8.20426 15.2956 8.2797 15.1088C8.35515 14.922 8.46744 14.7523 8.60987 14.6099C8.75231 14.4675 8.92198 14.3552 9.10875 14.2797C9.29553 14.2043 9.49559 14.1672 9.69699 14.1708C9.8984 14.1743 10.097 14.2184 10.281 14.3004C10.465 14.3824 10.6306 14.5006 10.7679 14.648L14.9559 18.834L21.9019 9.98397C21.9145 9.96858 21.9278 9.95389 21.9419 9.93997H21.9399Z" fill="#24A869"/>
</svg>
